<svg width="512" height="512" viewBox="0 0 512 512" fill="none"
    xmlns="http://www.w3.org/2000/svg">
    <rect width="512" height="512" rx="128" fill="#050505"/>
    <defs>
        <linearGradient id="magmaGradient" x1="128" y1="128" x2="384" y2="412" gradientUnits="userSpaceOnUse">
            <stop offset="0%" stop-color="#FF9900"/>
            <stop offset="100%" stop-color="#FF3300"/>
        </linearGradient>
        <filter id="magmaGlow" x="0" y="0" width="512" height="512" filterUnits="userSpaceOnUse">
            <feGaussianBlur stdDeviation="6" result="coloredBlur"/>
            <feMerge>
                <feMergeNode in="coloredBlur"/>
                <feMergeNode in="SourceGraphic"/>
            </feMerge>
        </filter>
    </defs>
    <g filter="url(#magmaGlow)">
        <path d="M356 128H156C140.536 128 128 140.536 128 156V384C128 399.464 140.536 412 156 412H184C199.464 412 212 399.464 212 384V284L256 328L300 284V384C300 399.464 312.536 412 328 412H356C371.464 412 384 399.464 384 384V156C384 140.536 371.464 128 356 128Z" fill="url(#magmaGradient)"/>
        <path fill-rule="evenodd" clip-rule="evenodd" d="M256 356.284L328 284.284V156H356V384H328V324L256 396L184 324V384H156V156H184V284.284L256 356.284Z" fill="#FFCC00" fill-opacity="0.3"/>
    </g>
</svg>
